<?xml version="1.0" encoding="UTF-8" standalone="no"?>
<!-- Generator: Adobe Illustrator 10.0, SVG Export Plug-In . SVG Version: 3.0.0 Build 77)  -->

<svg
   xmlns:i="http://ns.adobe.com/AdobeIllustrator/10.0/"
   xmlns:dc="http://purl.org/dc/elements/1.1/"
   xmlns:cc="http://creativecommons.org/ns#"
   xmlns:rdf="http://www.w3.org/1999/02/22-rdf-syntax-ns#"
   xmlns:svg="http://www.w3.org/2000/svg"
   xmlns="http://www.w3.org/2000/svg"
   xmlns:sodipodi="http://sodipodi.sourceforge.net/DTD/sodipodi-0.dtd"
   xmlns:inkscape="http://www.inkscape.org/namespaces/inkscape"
   enable-background="new 0 0 507.349 417.889"
   height="417.889"
   i:pageBounds="0 792 612 0"
   i:rulerOrigin="0 0"
   i:viewOrigin="52 604"
   overflow="visible"
   space="preserve"
   viewBox="0 0 507.349 417.889"
   width="507.349"
   id="svg2"
   version="1.1"
   inkscape:version="0.48.2 r9819"
   sodipodi:docname="CeramicCapacitor.svg">
  <defs
     id="defs87" />
  <sodipodi:namedview
     pagecolor="#ffffff"
     bordercolor="#666666"
     borderopacity="1"
     objecttolerance="10"
     gridtolerance="10"
     guidetolerance="10"
     inkscape:pageopacity="0"
     inkscape:pageshadow="2"
     inkscape:window-width="1680"
     inkscape:window-height="992"
     id="namedview85"
     showgrid="false"
     inkscape:zoom="1.1294865"
     inkscape:cx="448.17743"
     inkscape:cy="96.841857"
     inkscape:window-x="0"
     inkscape:window-y="28"
     inkscape:window-maximized="1"
     inkscape:current-layer="svg2" />
  <metadata
     id="metadata4">
    <rdf:RDF>
      <cc:Work
         rdf:about="">
        <dc:title></dc:title>
        <dc:description>Capacitors</dc:description>
        <dc:subject>
          <rdf:Bag>
            <rdf:li>science</rdf:li>
            <rdf:li>capacitor</rdf:li>
            <rdf:li>electronic</rdf:li>
          </rdf:Bag>
        </dc:subject>
        <dc:publisher>
          <cc:Agent
             rdf:about="http://www.openclipart.org/">
            <dc:title>Open Clip Art Project</dc:title>
          </cc:Agent>
        </dc:publisher>
        <dc:creator>
          <cc:Agent
             rdf:about="http://web.resource.org/cc/PublicDomain">
            <dc:title>Gerald G.</dc:title>
          </cc:Agent>
        </dc:creator>
        <dc:rights>
          <cc:Agent
             rdf:about="http://web.resource.org/cc/PublicDomain">
            <dc:title>Public Domain</dc:title>
          </cc:Agent>
        </dc:rights>
        <dc:date>2005/05/31</dc:date>
        <dc:format>image/svg+xml</dc:format>
        <dc:type
           rdf:resource="http://purl.org/dc/dcmitype/StillImage" />
        <cc:license
           rdf:resource="http://web.resource.org/cc/PublicDomain" />
        <dc:language>en</dc:language>
      </cc:Work>
      <cc:License
         rdf:about="http://web.resource.org/cc/PublicDomain">
        <cc:permits
           rdf:resource="http://web.resource.org/cc/Reproduction" />
        <cc:permits
           rdf:resource="http://web.resource.org/cc/Distribution" />
        <cc:permits
           rdf:resource="http://web.resource.org/cc/DerivativeWorks" />
      </cc:License>
    </rdf:RDF>
  </metadata>
  <path
     clip-rule="evenodd"
     d="m 105.09232,238.81051 c 0,-30.38636 -23.49849,-54.96667 -52.526037,-54.96667 -28.964717,0 -52.46320753,24.58031 -52.46320753,54.96667 -0.06283019,4.69047 -0.06283019,8.82391 0.69113208,12.62065 0.56547165,3.74244 1.57075475,6.81615 3.01584905,10.05431 1.0681132,3.12801 3.1415095,6.03415 4.5237736,8.71219 1.3822642,2.56943 3.1415098,4.97285 3.3299998,6.98216 0,1.84484 -1.8220753,3.18541 -3.078679,4.86114 -1.4450944,1.61831 -3.7698114,2.90302 -5.0264151,4.74942 -1.4450944,1.61831 -2.1362265,3.23972 -2.76452835,5.52832 -0.5654717,2.06672 -0.81679246,5.02715 -0.75396227,7.37316 -0.12566037,2.12413 -0.12566037,4.07914 0,5.64314 H 6.7002453 v -5.25214 c -0.06283,-1.00232 -0.2513208,-1.84328 0.1256604,-2.95733 0.1256604,-1.28472 0.2513207,-2.01241 1.3194339,-3.46315 1.0681132,-1.62141 2.7016984,-3.79985 4.6494344,-5.02716 1.570754,-1.33903 3.45566,-2.2917 5.906037,-2.23274 2.513208,-0.11171 5.780378,1.45229 8.859057,2.34601 2.827358,0.89371 5.403396,1.84329 7.979434,2.84872 2.450377,0.83631 4.021132,1.22731 6.911321,1.78743 2.764528,0.3336 6.220188,0.39101 10.11566,0.39101 3.895472,0 7.288302,-0.0574 10.178491,-0.39101 2.953019,-0.56012 4.209622,-0.95112 6.91132,-1.78743 2.513208,-1.00543 5.089246,-1.95501 7.979434,-2.84872 2.827359,-0.89372 6.094529,-2.45772 8.796227,-2.34601 2.324717,-0.0574 4.146792,0.89371 5.968868,2.23274 1.822075,1.22731 3.45566,3.40575 4.649434,5.02716 0.879622,1.45229 1.005283,2.17843 1.319434,3.46315 0.314151,1.11559 0.12566,1.95501 0.12566,2.95733 v 5.25214 h 6.659999 c 0.0628,-1.564 0.0628,-3.51901 0,-5.64314 -0.12566,-2.34601 -0.37698,-5.30644 -0.75396,-7.37316 -0.56547,-2.2886 -1.57076,-3.91001 -2.76453,-5.52832 -1.44509,-1.84484 -3.769811,-3.13111 -5.026415,-4.74942 -1.507924,-1.67573 -3.078679,-3.01474 -3.015849,-4.86114 0,-2.00931 1.884906,-4.41273 3.26717,-6.98216 1.193774,-2.6796 3.267174,-5.58573 4.523774,-8.71219 1.2566,-3.23972 2.26189,-6.31187 3.01585,-10.05431 0.69113,-3.79674 0.69113,-7.93018 0.69113,-12.62065 z"
     i:knockout="Off"
     id="path9"
     inkscape:connector-curvature="0"
     style="fill:#c37f33;fill-rule:evenodd" />
  <path
     clip-rule="evenodd"
     d="m 52.566283,195.01684 c -5.026415,0 -10.241321,1.56401 -14.702264,3.40575 -4.460943,1.67571 -9.173208,4.24515 -12.189057,6.64857 -3.33,2.17533 -6.66,5.02715 -6.84849,6.81303 -0.188491,1.56401 1.822075,4.02173 5.780377,3.46315 3.832642,-0.782 9.86434,-5.52986 16.65,-6.70287 6.66,-1.11559 15.833208,-1.11559 22.681698,0 6.66,1.17301 12.691698,5.92087 16.65,6.70287 3.769812,0.55703 5.780378,-1.90069 5.780378,-3.46315 -0.314151,-1.78432 -3.644151,-4.63615 -6.848491,-6.81303 -3.141509,-2.40342 -7.853773,-4.97286 -12.189057,-6.64857 -4.586603,-1.84174 -9.99,-3.40575 -14.765094,-3.40575 z"
     i:knockout="Off"
     id="path11"
     inkscape:connector-curvature="0"
     style="fill:#d18836;fill-rule:evenodd" />
  <path
     clip-rule="evenodd"
     d="m 52.566283,283.94321 c -5.026415,-0.22498 -10.241321,-1.62141 -14.702264,-3.35144 -4.460943,-1.84484 -9.173208,-4.35842 -12.189057,-6.64857 -3.33,-2.40031 -6.66,-5.19473 -6.84849,-6.87045 -0.188491,-1.73002 1.822075,-4.07602 5.780377,-3.40574 3.832642,0.67029 9.86434,5.24903 16.65,6.64547 6.66,1.06129 15.833208,1.06129 22.681698,0 6.66,-1.39644 12.691698,-5.97673 16.65,-6.64547 3.769812,-0.67028 5.780378,1.67572 5.780378,3.40574 -0.314151,1.67572 -3.644151,4.47014 -6.848491,6.87045 -3.141509,2.2917 -7.853773,4.80373 -12.189057,6.64857 -4.586603,1.73003 -9.99,3.12646 -14.765094,3.35144 z"
     i:knockout="Off"
     id="path13"
     inkscape:connector-curvature="0"
     style="fill:#b0722e;fill-rule:evenodd" />
  <path
     clip-rule="evenodd"
     d="M 0.04024528,305.335 V 417.889 L 6.7002453,411.35214 V 305.335 H 0.04024528 z"
     i:knockout="Off"
     id="path15"
     inkscape:connector-curvature="0"
     style="fill:#808080;fill-rule:evenodd" />
  <path
     clip-rule="evenodd"
     d="m 98.495151,305.335 v 112.554 l 6.659999,-6.53686 V 305.335 h -6.659999 z"
     i:knockout="Off"
     id="path17"
     inkscape:connector-curvature="0"
     style="fill:#808080;fill-rule:evenodd" />
</svg>
