<?xml version="1.0" encoding="UTF-8" standalone="no"?>
<!-- Generator: Adobe Illustrator 10.0, SVG Export Plug-In . SVG Version: 3.0.0 Build 77)  -->

<svg
   xmlns:i="http://ns.adobe.com/AdobeIllustrator/10.0/"
   xmlns:dc="http://purl.org/dc/elements/1.1/"
   xmlns:cc="http://creativecommons.org/ns#"
   xmlns:rdf="http://www.w3.org/1999/02/22-rdf-syntax-ns#"
   xmlns:svg="http://www.w3.org/2000/svg"
   xmlns="http://www.w3.org/2000/svg"
   xmlns:sodipodi="http://sodipodi.sourceforge.net/DTD/sodipodi-0.dtd"
   xmlns:inkscape="http://www.inkscape.org/namespaces/inkscape"
   enable-background="new 0 0 507.349 417.889"
   height="417.889"
   i:pageBounds="0 792 612 0"
   i:rulerOrigin="0 0"
   i:viewOrigin="52 604"
   overflow="visible"
   space="preserve"
   viewBox="0 0 507.349 417.889"
   width="507.349"
   id="svg2"
   version="1.1"
   inkscape:version="0.48.2 r9819"
   sodipodi:docname="Gerald_G_Capacitors.svg">
  <defs
     id="defs87" />
  <sodipodi:namedview
     pagecolor="#ffffff"
     bordercolor="#666666"
     borderopacity="1"
     objecttolerance="10"
     gridtolerance="10"
     guidetolerance="10"
     inkscape:pageopacity="0"
     inkscape:pageshadow="2"
     inkscape:window-width="1680"
     inkscape:window-height="992"
     id="namedview85"
     showgrid="false"
     inkscape:zoom="1.1294865"
     inkscape:cx="448.17743"
     inkscape:cy="96.841857"
     inkscape:window-x="0"
     inkscape:window-y="28"
     inkscape:window-maximized="1"
     inkscape:current-layer="svg2" />
  <metadata
     id="metadata4">
    <rdf:RDF>
      <cc:Work
         rdf:about="">
        <dc:title></dc:title>
        <dc:description>Capacitors</dc:description>
        <dc:subject>
          <rdf:Bag>
            <rdf:li>science</rdf:li>
            <rdf:li>capacitor</rdf:li>
            <rdf:li>electronic</rdf:li>
          </rdf:Bag>
        </dc:subject>
        <dc:publisher>
          <cc:Agent
             rdf:about="http://www.openclipart.org/">
            <dc:title>Open Clip Art Project</dc:title>
          </cc:Agent>
        </dc:publisher>
        <dc:creator>
          <cc:Agent
             rdf:about="http://web.resource.org/cc/PublicDomain">
            <dc:title>Gerald G.</dc:title>
          </cc:Agent>
        </dc:creator>
        <dc:rights>
          <cc:Agent
             rdf:about="http://web.resource.org/cc/PublicDomain">
            <dc:title>Public Domain</dc:title>
          </cc:Agent>
        </dc:rights>
        <dc:date>2005/05/31</dc:date>
        <dc:format>image/svg+xml</dc:format>
        <dc:type
           rdf:resource="http://purl.org/dc/dcmitype/StillImage" />
        <cc:license
           rdf:resource="http://web.resource.org/cc/PublicDomain" />
        <dc:language>en</dc:language>
      </cc:Work>
      <cc:License
         rdf:about="http://web.resource.org/cc/PublicDomain">
        <cc:permits
           rdf:resource="http://web.resource.org/cc/Reproduction" />
        <cc:permits
           rdf:resource="http://web.resource.org/cc/Distribution" />
        <cc:permits
           rdf:resource="http://web.resource.org/cc/DerivativeWorks" />
      </cc:License>
    </rdf:RDF>
  </metadata>
  <path
     clip-rule="evenodd"
     d="m 390.601,186.372 c 0,-58.212 0,-116.424 0,-174.636 0,-6.48 5.256,-11.736 11.735,-11.736 30.42,0 60.84,0 91.225,0 6.479,0 11.735,5.256 11.735,11.736 0,58.212 0,116.424 0,174.636 l -0.036,22.861 c 0.181,0.828 0,1.799 -0.396,3.059 -0.468,1.189 -1.188,2.557 -2.16,4.105 -2.088,1.727 -3.24,3.203 -3.312,4.572 -0.108,1.367 0.72,2.447 2.628,3.527 1.08,0.936 1.907,2.16 2.483,3.527 0.504,1.404 0.756,2.809 0.756,4.645 h 0.036 c 0,6.48 -5.256,11.736 -11.735,11.736 -30.42,0 -60.805,0 -91.225,0 -6.479,0 -11.735,-5.256 -11.735,-11.736 -0.036,-1.836 0.216,-3.24 0.756,-4.645 0.54,-1.367 1.368,-2.592 2.483,-3.527 1.872,-1.08 2.7,-2.16 2.628,-3.527 -0.107,-1.369 -1.26,-2.846 -3.312,-4.572 -1.008,-1.549 -1.729,-2.916 -2.16,-4.105 -0.432,-1.26 -0.612,-2.23 -0.396,-3.059 v -22.861 z"
     i:knockout="Off"
     id="path69"
     inkscape:connector-curvature="0"
     style="fill-rule:evenodd" />
  <path
     clip-rule="evenodd"
     d="m 472.536,244.404 c 30.384,0 -7.344,0 23.076,0 6.479,0 11.736,-5.256 11.736,-11.736 h -0.036 c 0,-1.836 -0.252,-3.24 -0.756,-4.645 -0.576,-1.367 -1.404,-2.592 -2.484,-3.527 -1.908,-1.08 -2.736,-2.16 -2.628,-3.527 0.072,-1.369 1.224,-2.846 3.312,-4.572 0.973,-1.549 1.692,-2.916 2.16,-4.105 0.396,-1.26 0.576,-2.23 0.396,-3.059 l 0.036,-22.861 c 0,-58.212 0,-116.424 0,-174.636 C 507.348,5.256 502.091,0 495.612,0 c -30.384,0 7.344,0 -23.076,0 v 244.404 z"
     i:knockout="Off"
     id="path71"
     inkscape:connector-curvature="0"
     style="fill:#404040;fill-rule:evenodd" />
  <path
     clip-rule="evenodd"
     d="m 464.977,0.144 h 17.748 v 244.26 H 464.977 V 0.144 z"
     i:knockout="Off"
     id="path73"
     inkscape:connector-curvature="0"
     style="fill:#212121;fill-rule:evenodd" />
  <path
     clip-rule="evenodd"
     d="m 414.216,0.036 h 39.853 V 244.405 H 414.216 V 0.036 z"
     i:knockout="Off"
     id="path75"
     inkscape:connector-curvature="0"
     style="fill:#999e9e;fill-rule:evenodd" />
  <path
     clip-rule="evenodd"
     d="m 419.148,122.328 14.364,10.008 14.363,-10.224 v 6.264 L 433.513,138.6 419.149,128.592 v -6.264 z"
     i:knockout="Off"
     stroke-miterlimit="10"
     id="path77"
     inkscape:connector-curvature="0"
     style="fill-rule:evenodd;stroke:#000000;stroke-width:0.036;stroke-miterlimit:10" />
  <path
     clip-rule="evenodd"
     d="M 419.148,122.328 V 90.144 h 13.104 15.624 v 31.968 l -3.852,3.636 V 94.032 h -21.313 v 33.624 l -3.563,-5.328 z"
     i:knockout="Off"
     stroke-miterlimit="10"
     id="path79"
     inkscape:connector-curvature="0"
     style="fill-rule:evenodd;stroke:#000000;stroke-width:0.036;stroke-miterlimit:10" />
  <path
     clip-rule="evenodd"
     d="m 415.296,244.512 v 172.225 l 6.66,-9.936 V 244.512 h -6.66 z"
     i:knockout="Off"
     id="path81"
     inkscape:connector-curvature="0"
     style="fill:#808080;fill-rule:evenodd" />
  <path
     clip-rule="evenodd"
     d="m 475.956,243.145 v 172.223 l 6.66,-9.936 V 243.145 h -6.66 z"
     i:knockout="Off"
     id="path83"
     inkscape:connector-curvature="0"
     style="fill:#808080;fill-rule:evenodd" />
</svg>
