<?xml version="1.0" encoding="UTF-8" standalone="no"?>
<!-- Created with Inkscape (http://www.inkscape.org/) -->

<svg
   xmlns:dc="http://purl.org/dc/elements/1.1/"
   xmlns:cc="http://creativecommons.org/ns#"
   xmlns:rdf="http://www.w3.org/1999/02/22-rdf-syntax-ns#"
   xmlns:svg="http://www.w3.org/2000/svg"
   xmlns="http://www.w3.org/2000/svg"
   xmlns:sodipodi="http://sodipodi.sourceforge.net/DTD/sodipodi-0.dtd"
   xmlns:inkscape="http://www.inkscape.org/namespaces/inkscape"
   id="svg2"
   version="1.1"
   inkscape:version="0.48.2 r9819"
   width="431"
   height="577"
   sodipodi:docname="S0209.jpg">
  <metadata
     id="metadata8">
    <rdf:RDF>
      <cc:Work
         rdf:about="">
        <dc:format>image/svg+xml</dc:format>
        <dc:type
           rdf:resource="http://purl.org/dc/dcmitype/StillImage" />
        <dc:title></dc:title>
      </cc:Work>
    </rdf:RDF>
  </metadata>
  <defs
     id="defs6" />
  <sodipodi:namedview
     pagecolor="#ffffff"
     bordercolor="#666666"
     borderopacity="1"
     objecttolerance="10"
     gridtolerance="10"
     guidetolerance="10"
     inkscape:pageopacity="0"
     inkscape:pageshadow="2"
     inkscape:window-width="1680"
     inkscape:window-height="992"
     id="namedview4"
     showgrid="false"
     showguides="true"
     inkscape:guide-bbox="true"
     inkscape:zoom="0.8257342"
     inkscape:cx="344.00195"
     inkscape:cy="28.230264"
     inkscape:window-x="0"
     inkscape:window-y="28"
     inkscape:window-maximized="1"
     inkscape:current-layer="svg2" />
  <path
     sodipodi:type="arc"
     style="fill:#006680;fill-opacity:1;stroke:none"
     id="path3887"
     sodipodi:cx="134.44492"
     sodipodi:cy="445.55228"
     sodipodi:rx="171.26741"
     sodipodi:ry="180.25894"
     d="m 305.71233,445.55228 a 171.26741,180.25894 0 1 1 -342.534825,0 171.26741,180.25894 0 1 1 342.534825,0 z"
     transform="matrix(1.0875,0,0,1.0308789,66.617616,-9.2247495)" />
  <path
     style="fill:#000000;fill-opacity:1;stroke:none"
     d="m 209.5,318.9375 c -0.44762,0.0331 -0.89064,0.12798 -1.3125,0.28125 l -67.84375,24.21875 c -1.1667,0.4193 -2.1608,1.29914 -2.71875,2.40625 l -21.1875,41.46875 c -0.50638,1.00364 -0.65257,2.18442 -0.40625,3.28125 l 8.15625,36.9375 c 0.3639,1.62427 1.61354,3.02092 3.1875,3.5625 l 12.40625,4.25 4.65625,1.59375 3.15625,-9.28125 -4.625,-1.5625 -9.8125,-3.375 -7.1875,-32.5 1.34375,-2.625 22.5625,-17.375 11.1875,10.59375 11.5,-18.46875 10.3125,19.0625 26.03125,10.3125 32.40625,0 L 230.71875,379 l 33,8.15625 -1.53125,-13.625 42.78125,14.1875 0.0937,0.0937 -7.65625,34.9375 -9.8125,3.34375 -4.625,1.5625 3.15625,9.28125 4.65625,-1.59375 12.40625,-4.25 c 1.57396,-0.54158 2.8236,-1.93823 3.1875,-3.5625 l 8.8125,-39.96875 c 0.32631,-1.46385 -0.0664,-3.07051 -1.03125,-4.21875 l -40.875,-48.71875 c -0.67922,-0.80893 -1.62677,-1.38861 -2.65625,-1.625 l -59.65625,-13.9375 c -0.47957,-0.11526 -0.9766,-0.15756 -1.46875,-0.125 z m 5.59375,110.25 C 195.17657,429.201 175.3334,432.49654 151,439.03125 l -2.40625,0.625 0.4375,2.4375 7.875,43.59375 0.40625,2.1875 2.1875,0.0312 27.84375,0.59375 c 3.81313,0.0829 7.00064,-1.68942 9.46875,-4 2.46811,-2.31058 4.41953,-5.18408 6.34375,-7.90625 1.92422,-2.72217 3.8395,-5.28873 5.8125,-7.0625 1.973,-1.77377 3.8412,-2.74836 6.3125,-2.75 2.47055,-0.002 4.36977,0.97715 6.34375,2.75 1.97398,1.77285 3.85501,4.3393 5.78125,7.0625 1.92624,2.7232 3.90507,5.59454 6.375,7.90625 2.46993,2.31171 5.65411,4.08293 9.46875,4 l 27.84375,-0.59375 2.1875,-0.0312 0.40625,-2.1875 7.875,-43.59375 0.4375,-2.4375 -2.40625,-0.625 c -24.61497,-6.58796 -44.58282,-9.85721 -64.5,-9.84375 z m -88.5,3.59375 c -0.28961,0.0227 -0.48212,0.0625 -0.59375,0.0625 -0.45947,0.45718 -1.95066,7.15869 0,7.84375 0.52966,0.18601 1.04137,0.34549 1.53125,0.53125 l 14.25,5.40625 c 0.42373,0.16067 1.8002,1.07289 2.9375,0.8125 1.53918,-0.35241 1.9156,-6.53312 0.40625,-7.3125 -0.35136,-0.13335 -0.7485,-0.30625 -1.21875,-0.5 l -16.25,-6.6875 c -0.41401,-0.17057 -0.77289,-0.17894 -1.0625,-0.15625 z m 176.90625,0 c -0.17925,0.0235 -0.38675,0.071 -0.59375,0.15625 l -16.21875,6.6875 c -0.47025,0.19375 -0.86739,0.36665 -1.21875,0.5 -1.50935,0.77938 -1.16418,6.96009 0.375,7.3125 1.1373,0.26039 2.51377,-0.65183 2.9375,-0.8125 l 14.25,-5.40625 c 0.48988,-0.18576 1.00159,-0.34524 1.53125,-0.53125 1.95066,-0.68506 0.49072,-7.38657 0.0312,-7.84375 -0.16744,0 -0.55599,-0.13292 -1.09375,-0.0625 z M 215.09375,434.5 c 18.6833,-0.0126 37.53536,3.05269 60.71875,9.125 l -7.03125,38.96875 -25.65625,0.53125 c -2.15209,0.0468 -3.79827,-0.82353 -5.65625,-2.5625 -1.85798,-1.73897 -3.71685,-4.35193 -5.65625,-7.09375 -1.9394,-2.74182 -3.9878,-5.62832 -6.59375,-7.96875 -2.60595,-2.34043 -5.93726,-4.12778 -9.9375,-4.125 -3.99948,0.003 -7.3334,1.78385 -9.9375,4.125 -2.6041,2.34115 -4.65648,5.25937 -6.59375,8 -1.93727,2.74063 -3.76918,5.32514 -5.625,7.0625 -1.85582,1.73736 -3.50494,2.60927 -5.65625,2.5625 L 161.8125,482.59375 154.78125,443.625 c 22.91193,-6.02208 41.63633,-9.11245 60.3125,-9.125 z m 0.34375,3.34375 c -1.27732,-0.002 -2.56479,0.003 -3.84375,0.0312 -17.96792,0.40366 -35.68727,3.67715 -53.03125,8.15625 2.11504,10.99256 3.73506,22.30119 6.21875,33.09375 9.21963,0.51532 20.68782,1.39477 24.40625,-1.125 8.46674,-5.73742 14.03479,-20.0762 25.96875,-19.90625 12.05959,-0.11099 16.63386,13.59008 24.6875,20.15625 3.24016,2.64172 19.20431,1.02468 26.09375,1 2.90754,-10.38167 4.37125,-23.40175 6.09375,-33.21875 -18.47815,-4.75187 -37.43401,-8.15802 -56.59375,-8.1875 z m -90,7.5625 c -1.44079,-0.0487 -2.86778,0.0914 -4.25,0.59375 -3.991,2.18842 -7.21721,7.61758 -6.375,11.9375 0.24341,1.11574 0.78992,5.22093 1.84375,10.09375 1.05383,4.87282 2.6978,10.79369 5.46875,16.71875 5.1385,10.98756 14.99848,22.12291 31.28125,25 l 9.65625,34.46875 c 0.25192,0.92977 0.75323,1.79072 1.4375,2.46875 l 29.34375,28.75 c 1.01531,0.9901 2.4256,1.56339 3.84375,1.5625 l 35.1875,0 c 1.41815,8.9e-4 2.82844,-0.5724 3.84375,-1.5625 l 29.375,-28.75 c 0.68427,-0.67803 1.18558,-1.53898 1.4375,-2.46875 L 277.1875,509.75 c 16.28208,-2.87737 26.15036,-14.01171 31.28125,-25 2.76684,-5.92545 4.38681,-11.84613 5.4375,-16.71875 1.05069,-4.87262 1.60116,-8.98177 1.84375,-10.09375 0.35343,-1.62005 0.40186,-3.46825 -0.25,-5.25 -1.44903,-2.53692 -3.66702,-5.75891 -6.09375,-6.6875 -3.68592,-1.33959 -7.70929,-0.15237 -11.40625,0.5625 -4.85688,0.93917 -10.84276,2.34169 -14.75,5.59375 l -4.96875,23.625 c -1.2218,4.48967 5.87361,3.761 7.96875,2.1875 4.72235,-3.54659 10.25494,-13.87139 15.1875,-18.34375 0.89915,-0.81526 1.75946,0.081 2.5625,1.5625 -0.21621,1.30599 -0.45679,2.7367 -0.84375,4.53125 -0.94276,4.37207 -2.38573,9.51246 -4.65625,14.375 -4.54105,9.72509 -11.58849,18.07808 -26.125,19.34375 -2.21022,0.19583 -4.21585,1.86285 -4.8125,4 l -10.1875,36.375 -26.75,26.1875 -30.6875,0 -26.71875,-26.1875 -10.1875,-36.375 c -0.59665,-2.13715 -2.60228,-3.80417 -4.8125,-4 -14.53666,-1.26569 -21.57654,-9.61788 -26.125,-19.34375 -2.27423,-4.86294 -3.74201,-10.00313 -4.6875,-14.375 -0.38848,-1.79631 -0.62549,-3.22779 -0.84375,-4.53125 0.80353,-1.48337 1.66272,-2.37833 2.5625,-1.5625 4.93256,4.47236 10.46515,14.79716 15.1875,18.34375 2.09514,1.5735 9.2218,2.30217 8,-2.1875 l -4.96875,-23.625 c -3.90724,-3.25206 -9.89312,-4.65458 -14.75,-5.59375 -2.3106,-0.44679 -4.75493,-1.07505 -7.15625,-1.15625 z"
     id="path3769"
     inkscape:connector-curvature="0"
     sodipodi:nodetypes="cccccccccccccccccccccccccccccccccccccccscccccccssscssscccccccsscsccscccsccccsccsccscccssscssscccsssccscsccssccssccccccccccsssccsccsscssccccccccsscssccss" />
</svg>
