<?xml version="1.0" encoding="UTF-8" standalone="no"?>
<!-- Generator: Adobe Illustrator 10.0, SVG Export Plug-In . SVG Version: 3.0.0 Build 77)  -->

<svg
   xmlns:i="http://ns.adobe.com/AdobeIllustrator/10.0/"
   xmlns:dc="http://purl.org/dc/elements/1.1/"
   xmlns:cc="http://creativecommons.org/ns#"
   xmlns:rdf="http://www.w3.org/1999/02/22-rdf-syntax-ns#"
   xmlns:svg="http://www.w3.org/2000/svg"
   xmlns="http://www.w3.org/2000/svg"
   xmlns:sodipodi="http://sodipodi.sourceforge.net/DTD/sodipodi-0.dtd"
   xmlns:inkscape="http://www.inkscape.org/namespaces/inkscape"
   enable-background="new 0 0 536.543 303.57"
   height="303.57"
   i:pageBounds="0 792 612 0"
   i:rulerOrigin="0 0"
   i:viewOrigin="37 547"
   overflow="visible"
   space="preserve"
   viewBox="0 0 536.543 303.57"
   width="536.543"
   id="svg2"
   version="1.1"
   inkscape:version="0.48.2 r9819"
   sodipodi:docname="resistor.svg">
  <defs
     id="defs119" />
  <sodipodi:namedview
     pagecolor="#ffffff"
     bordercolor="#666666"
     borderopacity="1"
     objecttolerance="10"
     gridtolerance="10"
     guidetolerance="10"
     inkscape:pageopacity="0"
     inkscape:pageshadow="2"
     inkscape:window-width="1680"
     inkscape:window-height="992"
     id="namedview117"
     showgrid="false"
     inkscape:zoom="2"
     inkscape:cx="244.39468"
     inkscape:cy="180.18661"
     inkscape:window-x="0"
     inkscape:window-y="28"
     inkscape:window-maximized="1"
     inkscape:current-layer="svg2" />
  <metadata
     id="metadata4">
    <rdf:RDF>
      <cc:Work
         rdf:about="">
        <dc:title></dc:title>
        <dc:description>Resistors</dc:description>
        <dc:subject>
          <rdf:Bag>
            <rdf:li>science</rdf:li>
            <rdf:li>resistor</rdf:li>
            <rdf:li>electronic</rdf:li>
          </rdf:Bag>
        </dc:subject>
        <dc:publisher>
          <cc:Agent
             rdf:about="http://www.openclipart.org/">
            <dc:title>Open Clip Art Project</dc:title>
          </cc:Agent>
        </dc:publisher>
        <dc:creator>
          <cc:Agent
             rdf:about="http://web.resource.org/cc/PublicDomain">
            <dc:title>Gerald G.</dc:title>
          </cc:Agent>
        </dc:creator>
        <dc:rights>
          <cc:Agent
             rdf:about="http://web.resource.org/cc/PublicDomain">
            <dc:title>Public Domain</dc:title>
          </cc:Agent>
        </dc:rights>
        <dc:date>2005/05/31</dc:date>
        <dc:format>image/svg+xml</dc:format>
        <dc:type
           rdf:resource="http://purl.org/dc/dcmitype/StillImage" />
        <cc:license
           rdf:resource="http://web.resource.org/cc/PublicDomain" />
        <dc:language>en</dc:language>
      </cc:Work>
      <cc:License
         rdf:about="http://web.resource.org/cc/PublicDomain">
        <cc:permits
           rdf:resource="http://web.resource.org/cc/Reproduction" />
        <cc:permits
           rdf:resource="http://web.resource.org/cc/Distribution" />
        <cc:permits
           rdf:resource="http://web.resource.org/cc/DerivativeWorks" />
      </cc:License>
    </rdf:RDF>
  </metadata>
  <path
     clip-rule="evenodd"
     d="m 2.196,121.734 h 348.335 l -2.16,-2.736 H 0 l 2.196,2.736 z"
     i:knockout="Off"
     id="path27"
     inkscape:connector-curvature="0"
     style="fill:#808080;fill-rule:evenodd" />
  <path
     style="fill:#b2966e;fill-rule:evenodd;fill-opacity:1"
     d="m 146.8125,104.25 c -0.34031,-0.0135 -0.667,-0.005 -1,0.0312 -1.476,0.18 -3.29775,0.367 -4.59375,1.375 -1.368,0.828 -2.42675,2.60075 -3.21875,3.96875 -0.864,1.404 -0.88325,2.65375 -1.53125,4.09375 -0.684,1.368 -1.35275,2.98725 -2.46875,4.03125 -0.71629,0.54775 -1.56418,0.94882 -2.53125,1.25 l 0,2.75 c 0.96707,0.30118 1.81496,0.70225 2.53125,1.25 1.116,1.044 1.78475,2.66325 2.46875,4.03125 0.648,1.44 0.66725,2.68975 1.53125,4.09375 0.792,1.368 1.85075,3.14075 3.21875,3.96875 1.296,1.008 3.11775,1.195 4.59375,1.375 0.333,0.0362 0.65969,0.0447 1,0.0312 1.02094,-0.0405 2.04225,-0.26975 2.90625,-0.59375 1.08,-0.432 2.136,-1.2365 3,-1.8125 0.792,-0.36 1.39075,-0.56525 2.21875,-0.78125 0.792,-0.144 1.65775,-0.28125 2.59375,-0.28125 l 32.59375,0 c 0.972,0 1.797,0.13725 2.625,0.28125 0.756,0.216 1.2875,0.42125 2.1875,0.78125 0.864,0.576 1.776,1.3805 3,1.8125 1.188,0.432 2.43025,0.7065 3.90625,0.5625 1.404,-0.18 3.22575,-0.367 4.59375,-1.375 1.224,-0.828 2.422,-2.60075 3.25,-3.96875 0.756,-1.404 0.77525,-2.65375 1.53125,-4.09375 0.648,-1.368 1.1775,-2.98725 2.4375,-4.03125 0.69522,-0.54775 1.52934,-0.94882 2.5,-1.25 l 0,-2.75 c -0.97066,-0.30118 -1.80478,-0.70225 -2.5,-1.25 -1.26,-1.044 -1.7895,-2.66325 -2.4375,-4.03125 -0.756,-1.44 -0.77525,-2.68975 -1.53125,-4.09375 -0.828,-1.368 -2.026,-3.14075 -3.25,-3.96875 -1.368,-1.008 -3.18975,-1.195 -4.59375,-1.375 -1.476,-0.144 -2.71825,0.1305 -3.90625,0.5625 -1.224,0.432 -2.136,1.2365 -3,1.8125 -0.9,0.36 -1.4315,0.56525 -2.1875,0.78125 -0.828,0.144 -1.653,0.28125 -2.625,0.28125 l -32.59375,0 c -0.936,0 -1.80175,-0.13725 -2.59375,-0.28125 -0.828,-0.216 -1.42675,-0.42125 -2.21875,-0.78125 -0.864,-0.576 -1.92,-1.3805 -3,-1.8125 -0.864,-0.324 -1.88531,-0.55325 -2.90625,-0.59375 z"
     transform="translate(-8.4200044e-6,0)"
     id="path3229"
     inkscape:connector-curvature="0"
     sodipodi:nodetypes="sccccccccccccscccssccccccccccccccccccsscccs" />
  <rect
     style="fill:#803300;fill-opacity:1;stroke:none"
     id="rect3251"
     width="3.6999998"
     height="25.307999"
     x="159.99998"
     y="107.72201" />
  <rect
     style="fill:#000000;fill-opacity:1;stroke:none"
     id="rect3251-5"
     width="3.6999998"
     height="25.307999"
     x="166.99998"
     y="107.71194" />
  <rect
     style="fill:#ff0000;fill-opacity:1;stroke:none"
     id="rect3251-0"
     width="3.6999998"
     height="25.307999"
     x="173.99998"
     y="107.6963" />
  <rect
     style="fill:#f8a400;fill-opacity:1;stroke:none"
     id="rect3251-1"
     width="3.6999998"
     height="25.307999"
     x="184.99998"
     y="107.58692" />
  <path
     style="opacity:0.456;fill:#705f46;fill-opacity:1;fill-rule:evenodd"
     d="M 201.3125 109.53125 C 198.81633 109.56034 196.20591 110.1704 193.40625 111.65625 L 155.15625 111.65625 C 148.26519 108.25263 142.65645 109.72821 137.15625 111.65625 C 136.96244 112.32419 136.79275 112.99875 136.46875 113.71875 C 136.13279 114.39068 135.82091 115.11728 135.4375 115.8125 C 142.24092 114.48586 148.99296 113.8647 155.5625 115.8125 L 193.125 115.8125 C 203.47824 112.8558 206.87817 115.0411 212.1875 115.8125 C 211.82579 115.11728 211.53703 114.39068 211.21875 113.71875 C 210.84075 112.99875 210.66256 112.32419 210.46875 111.65625 C 207.52568 110.41545 204.52186 109.49385 201.3125 109.53125 z "
     transform="translate(-8.4200044e-6,0)"
     id="path33" />
  <path
     style="opacity:0.70800003;fill:#2d251b;fill-opacity:1;fill-rule:evenodd"
     d="m 146.8125,104.25 c -0.34031,-0.0135 -0.667,-0.005 -1,0.0312 -1.476,0.18 -3.29775,0.367 -4.59375,1.375 -1.368,0.828 -2.42675,2.60075 -3.21875,3.96875 -0.43375,0.70483 -0.65092,1.36113 -0.84375,2.03125 5.5002,-1.92804 11.11843,-3.40362 18.00949,0 l 38.22796,0 c 6.39923,-3.39622 11.84292,-2.20587 17.07505,0 -0.19714,-0.6674 -0.40325,-1.32925 -0.78125,-2.03125 -0.828,-1.368 -2.026,-3.14075 -3.25,-3.96875 -1.368,-1.008 -3.18975,-1.195 -4.59375,-1.375 -1.476,-0.144 -2.71825,0.1305 -3.90625,0.5625 -1.224,0.432 -2.136,1.2365 -3,1.8125 -0.9,0.36 -1.4315,0.56525 -2.1875,0.78125 -0.828,0.144 -1.653,0.28125 -2.625,0.28125 l -32.59375,0 c -0.936,0 -1.80175,-0.13725 -2.59375,-0.28125 -0.828,-0.216 -1.42675,-0.42125 -2.21875,-0.78125 -0.864,-0.576 -1.92,-1.3805 -3,-1.8125 -0.864,-0.324 -1.88531,-0.55325 -2.90625,-0.59375 z"
     transform="translate(-8.4200044e-6,0)"
     id="path31"
     inkscape:connector-curvature="0"
     sodipodi:nodetypes="ccccccccccccccsscccsc" />
</svg>
