<?xml version="1.0" encoding="utf-8"?>
<!-- Generator: Adobe Illustrator 15.1.0, SVG Export Plug-In . SVG Version: 6.00 Build 0)  -->
<!DOCTYPE svg PUBLIC "-//W3C//DTD SVG 1.0//EN" "http://www.w3.org/TR/2001/REC-SVG-20010904/DTD/svg10.dtd">
<svg version="1.0" xmlns="http://www.w3.org/2000/svg" xmlns:xlink="http://www.w3.org/1999/xlink" x="0px" y="0px" width="612px"
	 height="792px" viewBox="0 0 612 792" enable-background="new 0 0 612 792" xml:space="preserve">
<g id="Layer_1" display="none">
	
		<image display="inline" overflow="visible" width="333" height="500" xlink:href="7E449CB5.jpg"  transform="matrix(1.516 0 0 1.516 50.7559 22)">
	</image>
</g>
<g id="Layer_3">
	<path fill="#666766" d="M226.25,670.75"/>
	<polyline fill="#92278F" points="167.667,521.667 208.52,471.406 208.5,434 167.667,423 167.667,521.667 	"/>
	<path fill="#666766" d="M338.333,253"/>
</g>
<g id="Layer_4">
	<path fill="#009444" d="M308.334,641.334l98.333,9l-44.453,10.168l0.102,102.982L527,757.667V523v-2.666l-34.667-9v-91L527,396
		V223.667L269.667,69L133.66,411.841l-0.159,122.973l-18.119,27.747l0.318-103.834l-31.481,80.21L84.204,593.9l-9.218,13.938
		l-0.072-45.191L63,593v134l42.705,7.502l0.045-87.752l15-12.75l-0.067,103.376l97.649,16.14l0.002-86.515 M167.667,521.667V423
		L271,224.333L338.333,253v156.667l-65-19.333"/>
	<path fill="#FFFFFF" d="M218.286,754.933"/>
	<polyline fill="#92278F" points="247.5,757.5 226.25,753 226.25,670.75 248.278,664.426 	"/>
	<polyline fill="#FFDE17" points="248.278,664.426 318.5,670.5 318.5,754.933 247.5,757.5 	"/>
</g>
<g id="Layer_5">
	<polyline fill="#F1F2F2" points="226.25,670.75 218.332,670.75 218.333,667.001 308.334,641.334 406.667,650.334 318.5,670.5 
		248.278,664.426 226.25,670.75 	"/>
</g>
<g id="Layer_6">
	<path fill="#FFFFFF" d="M362.315,763.484"/>
</g>
<g id="Layer_7">
	<polygon fill="#BE1E2D" points="271,224.333 338.333,253 208.5,434 167.667,423 	"/>
</g>
<g id="Layer_8">
	<line fill="#666766" x1="338.333" y1="253" x2="338.333" y2="409.667"/>
	<polygon fill="#FFDE17" points="208.5,433.875 208.5,470.875 273.333,391.208 338.333,409.542 338.333,252.875 	"/>
</g>
<g id="Layer_9">
	<polygon fill="#27AAE1" points="115.7,458.727 133.595,462.118 133.501,534.813 115.382,562.561 	"/>
</g>
<g id="Layer_14">
	<polygon fill="#27AAE1" points="105.75,646.75 105.705,734.502 120.75,721.375 120.75,634 	"/>
</g>
<g id="Layer_15">
	<polygon fill="#F1F2F2" points="105.705,734.502 120.683,737.376 120.75,721.375 	"/>
</g>
<g id="Layer_11">
	<polygon fill="#FFDE17" points="74.887,562.714 74.985,607.838 84.204,593.9 84.212,564.308 	"/>
</g>
<g id="Layer_12">
	<polyline fill="#BE1E2D" points="362.214,660.502 362.315,763.484 318.5,754.933 318.5,670.5 362.214,660.502 	"/>
</g>
<g id="Layer_13">
	<path fill="#BE1E2D" d="M218.286,754.933"/>
	<polygon fill="#F1F2F2" points="218.332,753.516 226.25,753 226.25,670.75 218.332,670.75 	"/>
</g>
<g id="Layer_10">
	<polygon fill="#27AAE1" points="271,224.333 269.667,69 527,223.667 527,395.5 492.327,384.149 492.333,509.334 527,520.334 
		527,757.667 362.315,763.484 362.214,660.502 406.667,650.334 308.334,641.334 273.417,651.292 273.417,391.21 338.333,409.667 
		338.333,253 	"/>
</g>
</svg>
