<?xml version="1.0" encoding="UTF-8" standalone="no"?>
<svg
   xmlns:dc="http://purl.org/dc/elements/1.1/"
   xmlns:cc="http://creativecommons.org/ns#"
   xmlns:rdf="http://www.w3.org/1999/02/22-rdf-syntax-ns#"
   xmlns:svg="http://www.w3.org/2000/svg"
   xmlns="http://www.w3.org/2000/svg"
   xmlns:sodipodi="http://sodipodi.sourceforge.net/DTD/sodipodi-0.dtd"
   xmlns:inkscape="http://www.inkscape.org/namespaces/inkscape"
   xml:space="preserve"
   height="20"
   width="20"
   version="1.1"
   y="0px"
   x="0px"
   viewBox="0 0 20 20"
   enable-background="new 0 0 18 18"
   id="svg2"
   inkscape:version="0.48.3.1 r9886"
   sodipodi:docname="add.svg"><metadata
   id="metadata26"><rdf:RDF><cc:Work
       rdf:about=""><dc:format>image/svg+xml</dc:format><dc:type
         rdf:resource="http://purl.org/dc/dcmitype/StillImage" /></cc:Work></rdf:RDF></metadata><defs
   id="defs24" /><sodipodi:namedview
   pagecolor="#ffffff"
   bordercolor="#666666"
   borderopacity="1"
   objecttolerance="10"
   gridtolerance="10"
   guidetolerance="10"
   inkscape:pageopacity="0"
   inkscape:pageshadow="2"
   inkscape:window-width="1366"
   inkscape:window-height="713"
   id="namedview22"
   showgrid="false"
   inkscape:zoom="13.111111"
   inkscape:cx="9"
   inkscape:cy="9"
   inkscape:window-x="0"
   inkscape:window-y="27"
   inkscape:window-maximized="1"
   inkscape:current-layer="svg2" />
<polygon
   points="18,13 15,13 15,10 13,10 13,13 10,13 10,15 13,15 13,18 15,18 15,15 18,15 "
   id="polygon4"
   transform="scale(1.1111111,1.1111111)" />
<polygon
   points="1,1 1,14 9,14 10,14 13,14 13,10 13,9 13,1 "
   id="polygon6"
   transform="scale(1.1111111,1.1111111)"
   style="fill:none" />
<polygon
   points="9,15 9,14 1,14 1,1 13,1 13,9 14,9 14,0 0,0 0,15 "
   id="polygon8"
   transform="scale(1.1111111,1.1111111)" />
<rect
   y="3.3333335"
   x="2.2222223"
   height="2.2222223"
   width="2.2222223"
   id="rect10" />
<rect
   y="6.6666665"
   x="2.2222223"
   height="2.2222223"
   width="2.2222223"
   id="rect12" />
<rect
   y="10"
   x="2.2222223"
   height="2.2222223"
   width="2.2222223"
   id="rect14" />
<rect
   y="3.3333335"
   x="5.5555553"
   height="1.1111112"
   width="7.7777777"
   id="rect16" />
<rect
   y="6.6666665"
   x="5.5555553"
   height="1.1111112"
   width="7.7777777"
   id="rect18" />
<rect
   y="10"
   x="5.5555553"
   height="1.1111112"
   width="7.7777777"
   id="rect20" />
</svg>