<?xml version="1.0" encoding="UTF-8" standalone="no"?>
<!-- Created with Inkscape (http://www.inkscape.org/) -->

<svg
   xmlns:dc="http://purl.org/dc/elements/1.1/"
   xmlns:cc="http://creativecommons.org/ns#"
   xmlns:rdf="http://www.w3.org/1999/02/22-rdf-syntax-ns#"
   xmlns:svg="http://www.w3.org/2000/svg"
   xmlns="http://www.w3.org/2000/svg"
   xmlns:sodipodi="http://sodipodi.sourceforge.net/DTD/sodipodi-0.dtd"
   xmlns:inkscape="http://www.inkscape.org/namespaces/inkscape"
   width="20"
   height="20"
   id="svg2985"
   version="1.1"
   inkscape:version="0.48.3.1 r9886"
   inkscape:export-filename="Y:\public_html\testbox\tt-irc\images\alert.png"
   inkscape:export-xdpi="102.17"
   inkscape:export-ydpi="102.17"
   sodipodi:docname="alert.svg">
  <defs
     id="defs2987" />
  <sodipodi:namedview
     id="base"
     pagecolor="#ffffff"
     bordercolor="#666666"
     borderopacity="1.0"
     inkscape:pageopacity="0.0"
     inkscape:pageshadow="2"
     inkscape:zoom="11.098901"
     inkscape:cx="3.5258285"
     inkscape:cy="3.4409105"
     inkscape:current-layer="layer1"
     showgrid="true"
     inkscape:grid-bbox="true"
     inkscape:document-units="px"
     inkscape:window-width="1366"
     inkscape:window-height="713"
     inkscape:window-x="0"
     inkscape:window-y="27"
     inkscape:window-maximized="1" />
  <metadata
     id="metadata2990">
    <rdf:RDF>
      <cc:Work
         rdf:about="">
        <dc:format>image/svg+xml</dc:format>
        <dc:type
           rdf:resource="http://purl.org/dc/dcmitype/StillImage" />
        <dc:title></dc:title>
      </cc:Work>
    </rdf:RDF>
  </metadata>
  <g
     id="layer1"
     inkscape:label="Layer 1"
     inkscape:groupmode="layer"
     transform="translate(0,4)">
    <path
       style="fill:#000000;fill-opacity:1"
       d="m 10,-2.6631944 -5,8.6805556 -5,8.6458328 10,0 10,0 -5,-8.6458328 -5,-8.6805556 z m -1.1805556,4.8611111 2.2916666,0 0,7.0138889 -2.2916666,0 0,-7.0138889 z M 9.965278,10.114583 c 0.172761,4e-6 0.333669,0.0034 0.486111,0.06944 0.157518,0.06606 0.304874,0.160909 0.416667,0.277778 0.116865,0.111795 0.211716,0.259147 0.277777,0.416667 0.06606,0.152441 0.104156,0.313348 0.104167,0.486111 -4e-6,0.177847 -0.03811,0.333671 -0.104167,0.486111 -0.06606,0.152439 -0.160912,0.299797 -0.277777,0.416667 -0.111793,0.111794 -0.259149,0.211721 -0.416667,0.277777 -0.152442,0.06606 -0.31335,0.06944 -0.486111,0.06944 -0.177848,0 -0.333674,-0.0034 -0.486111,-0.06944 C 9.326725,12.479074 9.179368,12.37915 9.0625,12.267361 8.9507096,12.150491 8.8854999,12.003133 8.8194444,11.850694 8.7533867,11.698254 8.7152767,11.54243 8.7152778,11.364583 c -1.2e-6,-0.172763 0.038109,-0.33367 0.1041666,-0.486111 0.066054,-0.15752 0.1312652,-0.304876 0.2430556,-0.416666 0.116869,-0.116875 0.264225,-0.211719 0.416667,-0.277778 0.152437,-0.06606 0.308263,-0.06944 0.486111,-0.06944 z"
       id="path2993"
       inkscape:connector-curvature="0" />
  </g>
</svg>
